<svg width="320" height="240" xmlns="http://www.w3.org/2000/svg" xmlns:se="http://svg-edit.googlecode.com">
 <!-- Created with SVG-edit - http://svg-edit.googlecode.com/ -->
 <g>
  <title>Layer 1</title>
  <polyline se:connector="svg_8 svg_2" id="svg_22" points="218.117 156.562 190.479 179.141 162.841 201.719" stroke="#000000" stroke-width="5" fill="none"/>
  <polyline se:connector="svg_6 svg_2" id="svg_21" points="81.748 156.562 106.082 179.141 130.415 201.719" stroke="#000000" stroke-width="5" fill="none"/>
  <polyline se:connector="svg_12 svg_8" id="svg_20" points="155.915 34.0111 190.479 81.2 225.043 128.389" stroke="#000000" stroke-width="5" fill="none"/>
  <polyline se:connector="svg_12 svg_10" id="svg_19" points="128.874 34.0111 108.033 51.5667 87.1919 69.1222" stroke="#000000" stroke-width="5" fill="none"/>
  <polyline se:connector="svg_10 svg_6" id="svg_18" points="69.5411 97.2958 68.5174 112.842 67.4936 128.389" stroke="#000000" stroke-width="5" fill="none"/>
  <g id="svg_23">
   <g id="svg_13">
    <rect fill="#ffffff" stroke="#000000" stroke-width="5" x="84.12849" y="7.9878" width="121.96184" height="30.13556" rx="8" ry="8" id="svg_11"/>
    <text fill="#000000" stroke="#000000" stroke-width="0" stroke-linejoin="null" stroke-linecap="null" x="156" y="32" font-size="24" font-family="Monospace" text-anchor="middle" xml:space="preserve" id="svg_12" transform="matrix(0.9756945944021017,0,0,1.0045187484355547,-6.611107430960592,-4.066423909551316) ">base.css</text>
   </g>
   <g id="svg_14">
    <rect fill="#ffffff" stroke="#000000" stroke-width="5" x="9.00001" y="71.27249" width="121.96184" height="30.13556" rx="8" ry="8" id="svg_9"/>
    <text fill="#000000" stroke="#000000" stroke-width="0" stroke-linejoin="null" stroke-linecap="null" x="79" y="95" font-size="24" font-family="Monospace" text-anchor="middle" xml:space="preserve" id="svg_10" transform="matrix(0.9756945944021017,0,0,1.0045187484355547,-6.611107430960592,-4.066423909551316) ">menu.css</text>
   </g>
   <g id="svg_15">
    <rect fill="#ffffff" stroke="#000000" stroke-width="5" x="9.00001" y="130.53908" width="110.2535" height="30.13556" id="svg_5" rx="8" ry="8"/>
    <text fill="#000000" stroke="#000000" stroke-width="0" stroke-linejoin="null" stroke-linecap="null" x="75" y="154" font-size="24" font-family="Monospace" text-anchor="middle" xml:space="preserve" id="svg_6" transform="matrix(0.9756945944021017,0,0,1.0045187484355547,-6.611107430960592,-4.066423909551316) ">menu.js</text>
   </g>
   <g id="svg_16">
    <rect fill="#ffffff" stroke="#000000" stroke-width="5" x="177.79517" y="130.53908" width="112.20489" height="30.13556" rx="8" ry="8" id="svg_7"/>
    <text fill="#000000" stroke="#000000" stroke-width="0" stroke-linejoin="null" stroke-linecap="null" x="248" y="154" font-size="24" font-family="Monospace" text-anchor="middle" xml:space="preserve" id="svg_8" transform="matrix(0.9756945944021017,0,0,1.0045187484355547,-6.611107430960592,-4.066423909551316) ">app.css</text>
   </g>
   <g id="svg_17">
    <rect fill="#ffffff" stroke="#000000" stroke-width="5" x="98.76391" y="202.86444" width="92.69099" height="30.13556" id="svg_1" rx="8" ry="8"/>
    <text fill="#000000" stroke="#000000" stroke-width="0" stroke-linejoin="null" stroke-linecap="null" x="156" y="227" id="svg_2" font-size="24" font-family="Monospace" text-anchor="middle" xml:space="preserve" transform="matrix(0.9756945944021017,0,0,1.0045187484355547,-6.611107430960592,-4.066423909551316) ">app.js</text>
   </g>
  </g>
 </g>
</svg>
